<?xml version="1.0" encoding="iso-8859-1"?>
<!-- Uploaded to: SVG Repo, www.svgrepo.com, Generator: SVG Repo Mixer Tools -->
<svg fill="#000000" height="800px" width="800px" version="1.1" id="Layer_1" xmlns="http://www.w3.org/2000/svg" xmlns:xlink="http://www.w3.org/1999/xlink" 
	 viewBox="0 0 512.001 512.001" xml:space="preserve">
<g>
	<g>
		<path d="M511.703,427.936l-10.372-62.221h-22.246H456.84H55.16H32.914H10.67l-10.37,62.221c-1.062,6.362,0.731,12.869,4.901,17.79
			c4.171,4.924,10.293,7.76,16.742,7.76h468.114c6.451,0,12.575-2.836,16.742-7.76C510.97,440.805,512.763,434.298,511.703,427.936z
			"/>
	</g>
</g>
<g>
	<g>
		<polygon points="486.702,277.944 464.457,277.944 442.211,277.944 69.788,277.944 47.542,277.944 25.298,277.944 17.984,321.829 
			40.228,321.829 62.474,321.829 449.525,321.829 471.771,321.829 494.017,321.829 		"/>
	</g>
</g>
<g>
	<g>
		<path d="M467.817,164.622c-1.764-10.581-10.919-18.335-21.646-18.335H409.6v-45.161c8.517-3.015,14.629-11.118,14.629-20.667
			c0-12.118-9.823-21.943-21.943-21.943h-14.629h-87.771h-14.629c-12.117,0-21.943,9.825-21.943,21.943
			c0,9.549,6.113,17.652,14.629,20.667v45.161H65.828c-10.726,0-19.88,7.755-21.643,18.335l-11.573,69.436h22.244h22.246h357.794
			h22.246h22.246L467.817,164.622z"/>
	</g>
</g>
</svg>